<svg version="1.2" xmlns="http://www.w3.org/2000/svg" viewBox="0 0 462 568" width="462" height="568">
	<style>
		.s0 { fill: #000000 } 
		.s1 { fill: #dfe3e8 } 
		.s2 { fill: #ffffff } 
		.s3 { fill: #020202 } 
		.s4 { fill: #c44d00 } 
		.s5 { fill: #202124 } 
	</style>
	<path class="s0" d="m356.5 557.92h14.5c0.46 0 0.84-0.38 0.84-0.84v-156.82c0-0.46-0.38-0.84-0.84-0.84-0.45 0-0.83 0.38-0.83 0.84v155.98h-12.84v-155.72c0-0.45-0.38-0.83-0.83-0.83-0.46 0-0.84 0.38-0.84 0.83v156.6c0 0.45 0.38 0.8 0.84 0.8z"/>
	<path class="s0" d="m295.7 567.06h135.72c0.46 0 0.84-0.38 0.84-0.84v-3.88c0-0.42-0.34-0.8-0.76-0.84l-60.42-5.22h-14.58l-60.84 5.22c-0.42 0.04-0.76 0.42-0.76 0.84v3.88c-0.04 0.46 0.34 0.84 0.8 0.84zm134.88-1.68h-134.04v-2.28l60-5.18h14.42l59.62 5.18z"/>
	<path class="s0" d="m189.94 401.28h174.44c53.3 0 96.62-44.5 96.62-99.18v-79.84c0-0.45-0.38-0.83-0.83-0.83h-142.47c-0.45 0-0.83 0.38-0.83 0.83v41.12c0 35.71-28.29 64.76-63.05 64.76q-0.34 0-0.57 0.23c-34.76 2.93-64.15 32.63-64.15 66.21v5.86c0 0.46 0.38 0.84 0.84 0.84zm269.39-178.18v79c0 53.76-42.6 97.51-94.95 97.51h-173.6v-4.99c0-34.49 31.83-64.76 68.11-64.76 0.23 0 0.45-0.12 0.61-0.27 33.04-2.97 59.08-31.52 59.08-66.17v-40.32z"/>
	<path class="s1" d="m384.22 193.06h16.22v20.98h-16.22z"/>
	<path class="s0" d="m384.22 214.91h16.22c0.45 0 0.83-0.38 0.83-0.83v-20.98c0-0.46-0.38-0.84-0.83-0.84h-16.22c-0.46 0-0.84 0.38-0.84 0.84v20.98c0 0.45 0.38 0.83 0.84 0.83zm15.38-1.71h-14.55v-19.3h14.55z"/>
	<path class="s0" d="m400.43 199.23v-6.17h-16.22v13.59c1.45 0.31 4.38 0.65 7.73-0.45 5.25-1.72 7.84-5.83 8.49-6.97z"/>
	<path class="s0" d="m393.46 171.82q0.06 0 0.12 0c1.14-0.04 2.05-1.03 1.98-2.21-0.57-11.8 12.45-12.79 13.02-12.83 1.14-0.08 2.02-1.07 1.94-2.25-0.08-1.14-1.07-2.01-2.25-1.94-6.13 0.42-17.55 4.53-16.9 17.25 0.08 1.1 0.99 1.98 2.09 1.98z"/>
	<path class="s0" d="m391.63 171.74c0.8 0 1.56-0.46 1.91-1.25 0.26-0.61 6.39-14.63 2.36-22.66-3.43-6.85-4.23-9.97-4.23-9.97-0.26-1.11-1.41-1.83-2.55-1.53-1.1 0.27-1.83 1.41-1.56 2.52 0.04 0.15 0.84 3.5 4.57 10.89 2.63 5.21-0.88 15.53-2.48 19.07-0.45 1.07 0 2.28 1.07 2.78q0.51 0.16 0.91 0.15z"/>
	<path class="s0" d="m392.74 170.75c0.91 0 1.75-0.61 2.02-1.52 0.15-0.5 3.35-11.92-4.38-17.4-4.65-3.31-5.87-5.98-6.13-7.27-0.27-1.14-1.37-1.83-2.51-1.56-1.15 0.26-1.83 1.37-1.57 2.51 0.54 2.28 2.33 5.83 7.81 9.75 5.33 3.77 2.82 12.71 2.78 12.79-0.31 1.1 0.3 2.28 1.44 2.59 0.12 0.11 0.35 0.11 0.54 0.11z"/>
	<path class="s0" d="m392.09 170.94c0.04 0 0.12 0 0.16 0 1.14-0.07 2.01-1.1 1.94-2.25-0.04-0.45-0.99-11.45-12.87-15.03-7.35-2.21-8.95-7.5-9.02-7.73-0.31-1.11-1.49-1.75-2.59-1.45-1.11 0.3-1.75 1.45-1.45 2.55 0.08 0.31 2.21 7.73 11.84 10.62 9.18 2.78 9.9 11.27 9.9 11.35 0.11 1.1 1.03 1.94 2.09 1.94z"/>
	<path class="s0" d="m388.9 170.18c0.11 0 0.19 0 0.3-0.04 1.14-0.15 1.91-1.18 1.75-2.32-0.34-2.55-3.04-7.46-10.85-7.88-6.7-0.34-8.71-3.54-8.79-3.69-0.57-1.03-1.83-1.38-2.86-0.8-1.02 0.57-1.37 1.86-0.83 2.85 0.11 0.23 3 5.33 12.22 5.83 6.05 0.3 6.85 3.88 6.93 4.26 0.22 1.07 1.14 1.79 2.13 1.79z"/>
	<path class="s0" d="m403.18 188.65l-12.98-3.2-13.14 3-0.87-2.77c-3.01-9.45 4.03-19.12 13.97-19.12 9.86 0 16.94 9.56 14.01 19z"/>
	<path class="s1" d="m390.12 202.69c-7.21 0-13.06-6.46-13.06-14.43 0-7.97 5.85-14.43 13.06-14.43 7.21 0 13.06 6.46 13.06 14.43 0 7.97-5.85 14.43-13.06 14.43z"/>
	<path class="s0" d="m390.12 203.57c7.65 0 13.89-6.85 13.89-15.27 0-8.41-6.24-15.27-13.89-15.27-7.66 0-13.9 6.86-13.9 15.27 0 8.42 6.24 15.27 13.9 15.27zm0-28.9c6.73 0 12.22 6.09 12.22 13.59 0 7.5-5.49 13.59-12.22 13.59-6.74 0-12.23-6.09-12.23-13.59 0-7.5 5.49-13.59 12.23-13.59z"/>
	<path class="s2" d="m395.79 194.62c-1.26 1.15-2.9 1.94-4.73 2.14-4.07 0.42-7.76-2.25-8.79-6.1z"/>
	<path class="s3" d="m406.52 192.91c1.98 0 3.54-1.6 3.54-3.54 0-1.98-1.6-3.54-3.54-3.54-1.98 0-3.54 1.6-3.54 3.54 0 1.94 1.6 3.54 3.54 3.54zm0-5.44c1.03 0 1.87 0.83 1.87 1.86 0 1.03-0.84 1.87-1.87 1.87-1.03 0-1.86-0.84-1.86-1.87 0-1.03 0.83-1.86 1.86-1.86z"/>
	<path class="s2" d="m203.29 232.89l100.05 31.56c8.9 2.9 18.46 3.12 27.48 0.65l9.94-2.71-9.25 45.24h91.33l-20.94-96.02-33.35-0.12q-1.49 0-2.93 0.23c-6.62 0.27-13.21 1.29-19.61 3.01l-39.93 10.54-88.02-27.79z"/>
	<path class="s0" d="m331.5 308.46h91.33q0.41-0.01 0.65-0.3c0.15-0.19 0.23-0.46 0.15-0.73l-20.94-96.02c-0.07-0.38-0.41-0.64-0.79-0.64l-33.35-0.12c-1.03 0-2.06 0.08-3.01 0.23-6.63 0.27-13.29 1.3-19.76 3.05l-39.67 10.51-87.79-27.72c-0.42-0.12-0.88 0.07-1.03 0.49l-14.81 35.37q-0.11 0.35 0 0.69c0.08 0.23 0.27 0.38 0.5 0.46l100.05 31.56c9.1 2.97 18.77 3.2 27.98 0.65l8.64-2.37-8.98 43.9c-0.04 0.23 0 0.5 0.19 0.69q0.23 0.29 0.64 0.3zm90.31-1.67h-89.28l9.06-44.24c0.08-0.31-0.04-0.57-0.26-0.8-0.23-0.19-0.54-0.27-0.8-0.19l-9.94 2.7c-8.91 2.44-18.24 2.21-27.03-0.65l-99.17-31.29 14.16-33.85 87.29 27.56q0.23 0.06 0.46 0l39.9-10.58c6.36-1.71 12.9-2.7 19.41-2.97q0.07 0 0.08 0 1.32-0.18 2.82-0.19l32.66 0.11z"/>
	<path class="s1" d="m215.85 202.88l-4.84-1.83c0 0 1.75-7.76-5.75-12.14-1.75-1.03-5.52-2.78-8.71-4.27q-5.5-2.52-10.13-6.35l-3.54-2.94c-1.79-1.48-4.38-1.29-5.94 0.42l-0.34 0.38c-1.56 1.76-1.45 4.42 0.22 6.02l10.97 10.32-6.43 3.46c-3.32 1.79-7.01 2.59-10.78 2.4l-15.11-0.61c-2.51-0.11-4.72 1.68-5.14 4.15l-0.08 0.42-8.07-1.1c-2.4-0.27-4.57 1.4-4.91 3.8-0.34 2.33 1.14 4.53 3.46 5.07l56.62 12.71 8.9 3.05z"/>
	<path class="s0" d="m206.21 226.68c0.35 0 0.65-0.2 0.76-0.54l9.64-22.96q0.11-0.35 0-0.64c-0.08-0.19-0.27-0.38-0.46-0.46l-4.19-1.6c0.23-2.13 0.31-8.49-6.28-12.33-1.45-0.84-4.42-2.29-8.79-4.31-3.58-1.63-6.93-3.73-9.94-6.24l-3.54-2.93c-2.13-1.75-5.26-1.53-7.08 0.53l-0.34 0.38c-1.87 2.06-1.72 5.29 0.3 7.2l10.13 9.55-5.41 2.93c-3.16 1.72-6.74 2.52-10.32 2.29l-15.15-0.61c-2.78-0.11-5.29 1.79-5.94 4.45l-7.27-1.02c-2.85-0.31-5.44 1.67-5.86 4.49-0.42 2.74 1.37 5.4 4.11 6.01l56.57 12.72 8.87 3.05q0.01 0.04 0.19 0.04zm8.49-23.34l-8.98 21.47-8.15-2.78q-0.07 0.01-0.08-0.04l-56.61-12.72c-1.86-0.41-3.08-2.2-2.81-4.11 0.3-1.94 2.05-3.27 3.99-3.08l8.04 1.1c0.45 0.08 0.87-0.22 0.95-0.68l0.07-0.42c0.39-2.06 2.21-3.54 4.31-3.46l15.11 0.6c3.89 0.23 7.77-0.64 11.19-2.47l6.44-3.47c0.23-0.11 0.38-0.38 0.42-0.64 0.03-0.27-0.08-0.54-0.27-0.73l-10.96-10.31c-1.37-1.3-1.45-3.47-0.19-4.84l0.34-0.38c1.25-1.37 3.35-1.52 4.8-0.34l3.54 2.93c3.16 2.59 6.62 4.8 10.31 6.47 4.27 1.94 7.27 3.39 8.65 4.23 6.92 4.03 5.36 11.15 5.36 11.23-0.07 0.42 0.12 0.84 0.54 0.99z"/>
	<path class="s1" d="m186.19 209.43l-4.19-1.22c-2.66-0.76-5.06-2.28-6.85-4.42l-9.94-11.5c-1.44-1.63-3.92-1.86-5.59-0.45-1.6 1.33-1.91 3.69-0.69 5.37l9.82 13.89q1.2 1.73 2.97 2.82l6.29 3.92z"/>
	<path class="s1" d="m175.18 205.85l-4.34-0.5c-2.74-0.3-5.36-1.44-7.5-3.2l-11.72-9.7c-1.68-1.41-4.19-1.18-5.6 0.49-1.37 1.6-1.26 3.92 0.19 5.41l11.99 12.1c0.96 0.99 2.14 1.76 3.39 2.29l6.85 2.82z"/>
	<path class="s0" d="m161.64 213.54c0.34 0 0.64-0.19 0.76-0.53 0.19-0.42-0.04-0.91-0.46-1.11q-1.76-0.73-3.12-2.09l-11.99-12.11c-1.15-1.14-1.22-3.04-0.16-4.26 1.11-1.3 3.09-1.49 4.42-0.38l8.95 7.5c0.34 0.3 0.87 0.26 1.18-0.12 0.3-0.34 0.26-0.87-0.12-1.18l-8.94-7.5c-2.02-1.67-5.07-1.41-6.78 0.58-1.64 1.9-1.52 4.79 0.23 6.54l11.99 12.11q1.59 1.61 3.69 2.48 0.17 0.06 0.35 0.07z"/>
	<path class="s0" d="m174.84 216.2c0.35 0 0.65-0.19 0.76-0.53 0.19-0.42-0.03-0.91-0.45-1.1-3.66-1.53-5.79-3.13-7.39-5.45l-8.22-12.37c-0.95-1.37-0.72-3.24 0.53-4.27 1.33-1.1 3.31-0.95 4.42 0.35l9.94 11.49c1.94 2.25 4.45 3.85 7.27 4.65l8.83 1.87c0.46 0.11 0.91-0.19 0.99-0.65 0.07-0.46-0.19-0.92-0.65-0.99l-8.75-1.83c-2.48-0.72-4.69-2.13-6.4-4.15l-9.94-11.5c-1.71-1.98-4.76-2.24-6.77-0.53-1.91 1.6-2.29 4.45-0.84 6.51l8.22 12.34c1.75 2.62 4.19 4.41 8.15 6.05 0.11 0.08 0.19 0.11 0.3 0.11z"/>
	<path class="s0" d="m192.81 198.01c0.23 0 0.46-0.08 0.61-0.27 0.3-0.34 0.3-0.88-0.04-1.18l-5.17-4.76c-0.35-0.3-0.88-0.3-1.18 0.04-0.31 0.34-0.31 0.87 0.03 1.18l5.18 4.76c0.15 0.15 0.38 0.23 0.57 0.23z"/>
	<path class="s0" d="m347.71 157.62q0.23 0 0.46-0.12c0.38-0.22 0.5-0.76 0.27-1.14l-86.99-139.16c-0.23-0.38-0.77-0.49-1.15-0.26-0.38 0.23-0.49 0.76-0.26 1.14l86.95 139.16c0.15 0.26 0.42 0.38 0.72 0.38z"/>
	<path class="s0" d="m348.1 194.81c4.31 0 8.42-2.05 10.97-5.67 3.2-4.46 3.39-10.36 0.45-15l-6.24-10.01c-0.23-0.38-0.76-0.5-1.14-0.27-0.38 0.23-0.5 0.76-0.27 1.14l6.25 10.01c2.55 4.08 2.39 9.26-0.42 13.14-2.78 3.92-7.62 5.75-12.3 4.64l-179.81-41.69c-0.45-0.11-0.91 0.19-0.99 0.61-0.11 0.46 0.19 0.92 0.61 0.99l179.81 41.77q1.54 0.34 3.08 0.34z"/>
	<path class="s1" d="m316.08 198.24l19.34 6.43-7.54-8.49-4.87-1.71c-2.74-0.95-5.71 0.46-6.74 3.16z"/>
	<path class="s1" d="m309.15 229.53l18.58 11.65 22.88-15.53-10.62-18.89c-2.85-5.1-7.46-8.94-12.98-10.88l-3.35-1.18z"/>
	<path class="s0" d="m312.73 247.62c0.34 0 0.69-0.23 0.8-0.57l17.7-56.46q0.11-0.35-0.07-0.69-0.18-0.3-0.54-0.42l-13.17-3.05c-0.42-0.11-0.87 0.16-0.99 0.58l-17.4 55.47c-0.07 0.23-0.03 0.45 0.04 0.65q0.16 0.29 0.5 0.41l12.86 4.04q0.17 0.05 0.27 0.04zm16.64-56.69l-17.17 54.78-11.27-3.54 16.9-53.95z"/>
	<path class="s1" d="m307.32 203.07l22.28 7.84 2.58-7.34-22.27-7.85c-1.94-0.68-4.07 0.35-4.76 2.29l-0.11 0.3c-0.69 1.95 0.34 4.08 2.28 4.76z"/>
	<path class="s1" d="m301.38 209.24l23.42 8.26 2.59-7.34-23.42-8.27c-1.94-0.68-4.11 0.35-4.79 2.29l-0.08 0.26c-0.68 1.99 0.34 4.12 2.28 4.8z"/>
	<path class="s1" d="m296.25 223.98l23.04 8.11 2.59-7.35-23.04-8.11c-1.98-0.69-4.15 0.34-4.83 2.32l-0.08 0.19c-0.68 1.98 0.34 4.15 2.32 4.84z"/>
	<path class="s1" d="m309.27 234.75l18.27 6.36 2.59-7.39-30.95-10.85 3.62 6.44c1.45 2.55 3.73 4.45 6.47 5.44z"/>
	<path class="s1" d="m298.31 212.06l-0.16 0.42c-0.68 1.9 0.61 4.11 2.86 4.91l22.54 7.92 2.59-7.35-22.54-7.92c-2.25-0.8-4.61 0.11-5.29 2.02z"/>
	<path class="s0" d="m309.31 212.9c0.34 0 0.68-0.23 0.8-0.58 0.15-0.42-0.08-0.91-0.5-1.06l-7.92-2.78c-1.52-0.53-2.32-2.21-1.79-3.73l0.08-0.27c0.27-0.72 0.8-1.33 1.48-1.67q1.1-0.52 2.25-0.12l8.98 3.16c0.42 0.15 0.92-0.08 1.07-0.49 0.15-0.42-0.08-0.92-0.49-1.07l-8.99-3.16c-1.14-0.42-2.4-0.34-3.5 0.19-1.1 0.53-1.94 1.45-2.36 2.63l-0.08 0.26c-0.84 2.4 0.42 5.03 2.82 5.87l7.92 2.78c0.04 0 0.15 0.04 0.23 0.04z"/>
	<path class="s0" d="m307.86 220.66c0.34 0 0.68-0.23 0.8-0.57 0.15-0.42-0.08-0.91-0.5-1.06l-7.46-2.63c-1.48-0.53-2.25-2.13-1.75-3.62l0.15-0.42c0.27-0.72 0.76-1.29 1.45-1.63 0.68-0.35 1.44-0.38 2.17-0.12l7.19 2.55c0.42 0.16 0.92-0.07 1.07-0.49 0.15-0.42-0.08-0.92-0.5-1.07l-7.19-2.55c-1.14-0.42-2.36-0.34-3.47 0.19-1.1 0.53-1.9 1.45-2.32 2.59l-0.15 0.42c-0.84 2.36 0.42 4.95 2.78 5.79l7.46 2.62c0.12-0.03 0.19 0 0.27 0z"/>
	<path class="s1" d="m326.06 240.19l25.81 20.33 11.08-27.56-26.8-21.36z"/>
	<path class="s0" d="m314.56 206.46c0.34 0 0.69-0.23 0.8-0.57 0.15-0.42-0.08-0.91-0.5-1.07l-7.23-2.55c-0.72-0.26-1.33-0.8-1.64-1.48-0.34-0.69-0.38-1.49-0.11-2.21l0.11-0.31c0.54-1.52 2.21-2.32 3.7-1.78l20.21 7.11c0.42 0.16 0.92-0.07 1.07-0.49 0.15-0.42-0.08-0.91-0.5-1.07l-20.21-7.11c-2.4-0.84-4.99 0.41-5.83 2.77l-0.11 0.31c-0.42 1.14-0.34 2.4 0.19 3.5 0.53 1.11 1.45 1.94 2.63 2.32l7.23 2.55c0 0.08 0.11 0.08 0.19 0.08z"/>
	<path class="s0" d="m351.87 261.36q0.11 0.01 0.23-0.04c0.27-0.07 0.46-0.26 0.57-0.49l11.08-27.57c0.15-0.34 0.04-0.72-0.27-0.95l-14.73-11.72-8-14.21c-2.66-4.72-6.89-8.52-11.87-10.66-0.42-0.19-0.92 0-1.11 0.46-0.19 0.42 0 0.91 0.46 1.1 4.64 1.98 8.6 5.53 11.08 9.94l8.07 14.36c0.04 0.07 0.11 0.19 0.19 0.22l14.39 11.46-10.43 25.97-23.91-18.85c-0.08-0.03-0.15-0.11-0.23-0.11l-17.82-6.25c-2.55-0.91-4.68-2.7-5.97-5.02l-2.06-3.66q-0.17-0.27-0.46-0.38l-4.49-1.67c-0.76-0.27-1.37-0.8-1.71-1.52-0.34-0.73-0.38-1.53-0.12-2.25l0.08-0.19c0.53-1.52 2.25-2.36 3.77-1.79l10.16 3.58c0.42 0.15 0.92-0.08 1.07-0.5 0.15-0.41-0.08-0.91-0.49-1.06l-10.17-3.58c-2.4-0.84-5.06 0.42-5.9 2.82l-0.08 0.19c-0.41 1.18-0.34 2.43 0.19 3.54 0.54 1.1 1.49 1.94 2.63 2.36l4.23 1.56 1.9 3.39c1.52 2.7 3.96 4.76 6.89 5.78l17.67 6.21 24.63 19.34q0.24 0.18 0.53 0.19z"/>
	<path class="s0" d="m166.04 152.4c0.92 0 1.91-0.07 2.9-0.23 15.72-2.43 40.81-24.21 62.43-54.17 13.21-18.32 23.26-37.24 28.29-53.27 5.14-16.37 4.45-27.91-1.94-32.51-6.36-4.61-17.55-1.64-31.45 8.41-13.67 9.86-28.44 25.36-41.65 43.63-27.26 37.77-38.79 76.34-25.7 85.97 1.95 1.45 4.34 2.17 7.12 2.17zm84.6-140.6c2.43 0 4.49 0.57 6.16 1.79 5.68 4.07 6.13 15.27 1.3 30.65-4.99 15.91-14.96 34.64-28.06 52.8-21.36 29.63-46.03 51.1-61.33 53.5q-5.44 0.85-8.76-1.6c-12.14-8.95-0.19-47.29 26.08-83.65 13.1-18.16 27.75-33.5 41.27-43.25 9.29-6.74 17.36-10.24 23.34-10.24z"/>
	<path class="s0" d="m212.5 25.24c0.19 0 0.41-0.08 0.57-0.23 0.34-0.31 0.34-0.84 0.03-1.18l-22.34-23.57c-0.31-0.34-0.84-0.34-1.18-0.04-0.35 0.31-0.35 0.84-0.04 1.18l22.35 23.57c0.15 0.19 0.38 0.27 0.61 0.27z"/>
	<path class="s0" d="m242.91 57.33c0.19 0 0.42-0.07 0.57-0.22 0.34-0.31 0.34-0.84 0.04-1.18l-25.85-27.26c-0.31-0.35-0.84-0.35-1.18-0.04-0.34 0.3-0.34 0.83-0.04 1.18l25.85 27.26c0.15 0.19 0.38 0.26 0.61 0.26z"/>
	<path class="s0" d="m193.95 44.85c0.23 0 0.46-0.08 0.61-0.27 0.3-0.34 0.27-0.88-0.08-1.18l-27.48-24.44c-0.35-0.31-0.88-0.27-1.18 0.07-0.31 0.35-0.27 0.88 0.07 1.18l27.49 24.45q0.23 0.18 0.57 0.19z"/>
	<path class="s0" d="m233.32 79.87c0.23 0 0.45-0.07 0.61-0.26 0.3-0.35 0.26-0.88-0.08-1.18l-34.8-30.96c-0.34-0.3-0.87-0.26-1.18 0.08-0.3 0.34-0.26 0.87 0.08 1.18l34.8 30.95q0.28 0.18 0.57 0.19z"/>
	<path class="s0" d="m183.49 29.08c0.22 0 0.45-0.07 0.6-0.26 0.31-0.34 0.27-0.88-0.07-1.18l-19.04-16.91c-0.34-0.3-0.87-0.26-1.18 0.08-0.3 0.34-0.26 0.88 0.08 1.18l19.03 16.9q0.29 0.18 0.58 0.19z"/>
	<path class="s2" d="m344.09 257.21l19.38-27.67 46.52 34.41-9.44-52.46h12.53c11.76 0 21.93 8.22 24.36 19.76l12.76 59.96c2.4 11.39-6.28 22.09-17.9 22.09h-1.94c-6.39 0-12.64-2.06-17.81-5.83z"/>
	<path class="s0" d="m430.33 314.13h1.94c5.79 0 11.19-2.58 14.85-7.08 3.65-4.49 5.06-10.32 3.84-15.99l-12.71-60c-2.52-11.84-13.1-20.41-25.17-20.41h-12.52c-0.46 0-0.84 0.38-0.84 0.84 0 0.46 0.38 0.84 0.84 0.84h12.52c11.31 0 21.21 8.03 23.53 19.07l12.75 60c1.11 5.18-0.19 10.51-3.5 14.62-3.31 4.12-8.26 6.48-13.55 6.48h-1.94c-6.29 0-12.26-1.98-17.33-5.68l-67.76-49.76 18.42-26.27 53.84 40.02c0.38 0.26 0.91 0.19 1.18-0.19 0.26-0.38 0.19-0.92-0.19-1.18l-54.56-40.59q-0.3-0.22-0.65-0.15-0.34 0.06-0.57 0.34l-19.38 27.68c-0.26 0.38-0.19 0.88 0.19 1.14l68.42 50.26c5.4 3.96 11.72 6.01 18.35 6.01z"/>
	<path class="s0" d="m410.04 264.79c0.07 0 0.11 0 0.19 0 0.45-0.11 0.76-0.53 0.64-0.99l-6.89-32.51c-0.11-0.46-0.53-0.73-0.99-0.65-0.45 0.12-0.76 0.53-0.64 0.99l6.89 32.51c0.03 0.39 0.38 0.65 0.8 0.65z"/>
	<path class="s3" d="m359.86 230.3l-22.47 18.81 8.04 6.39 16.56-23.83z"/>
	<path class="s1" d="m216.89 468.21h42.1v46.11h-42.1z"/>
	<path class="s0" d="m216.88 515.2h42.11c0.46 0 0.84-0.38 0.84-0.84v-46.11c0-0.46-0.38-0.84-0.84-0.84h-42.11c-0.45 0-0.83 0.38-0.83 0.84v46.11c0 0.46 0.38 0.84 0.83 0.84zm41.27-1.68h-40.43v-44.47h40.43z"/>
	<path class="s2" d="m264.59 497.61l0.69 0.88c7.91 9.97 7.61 18.61 11.76 32.85l-52.88 19.23-79.11 0.99-13.52-7.96 4.57-11.23 43.74-14.47 30.08-19.04 6.21-9.25h8.33l7.01 6.55v8.15c7.92 4.72 9.36 7 13.29 7 0.07-0.03 6.66 0.65 8.75-5.67l2.17-6.47c1.3-3.88 6.36-4.76 8.91-1.56z"/>
	<path class="s0" d="m145.04 552.36l79.11-0.99c0.08 0 0.2 0 0.27-0.04l52.88-19.23c0.42-0.15 0.65-0.61 0.53-1.02-1.18-4.08-2.01-7.73-2.74-10.97-1.9-8.34-3.39-14.89-9.17-22.16l-0.69-0.87c-1.37-1.76-3.5-2.55-5.71-2.17-2.21 0.38-3.92 1.86-4.64 3.99l-2.17 6.48c-1.6 4.79-6.02 5.14-7.84 5.1q-0.05 0-0.16 0c-2.4 0-3.77-0.95-6.81-3.01-1.45-0.99-3.24-2.17-5.64-3.62v-7.69c0-0.23-0.11-0.45-0.26-0.61l-7.01-6.55q-0.23-0.22-0.57-0.22h-8.34c-0.26 0-0.53 0.15-0.68 0.38l-6.09 9.14-29.85 18.88-43.67 14.43c-0.23 0.07-0.42 0.26-0.49 0.49l-4.57 11.24c-0.15 0.38 0 0.83 0.34 1.02l13.52 7.96c0.15 0 0.3 0.04 0.45 0.04zm78.96-2.67l-78.73 0.99-12.68-7.46 4.15-10.2 43.4-14.36c0.08-0.03 0.12-0.03 0.2-0.07l30.07-19.04q0.16-0.11 0.27-0.23l5.94-8.91h7.57l6.51 6.06v7.8c0 0.31 0.16 0.57 0.42 0.73 2.55 1.52 4.46 2.81 5.94 3.84 3.12 2.13 4.87 3.27 7.77 3.27q-0.01 0 0.04 0c1.78 0.08 7.53-0.22 9.51-6.24l2.17-6.47c0.5-1.52 1.75-2.59 3.32-2.86 1.59-0.26 3.12 0.31 4.11 1.57l0.68 0.87c5.52 6.97 7.01 13.4 8.83 21.51 0.69 3.05 1.49 6.51 2.56 10.32z"/>
	<path class="s3" d="m131.53 543.6l24.67 4.72 65.41-1.33 55.43-15.69 7.95 7.24 3.35 18.16-21.32 9.37c0 0-15.34-0.08-34.79 0l-4.72-4.65h-7.31l-4.76 4.65c-30.42 0.07-63.39 0-63.39 0l-17.7-9.07-2.86-5.52v-7.88z"/>
	<path class="s0" d="m270.68 508.38q0.34 0 0.57-0.22c1.22-1.15 11.84-11.43 13.21-14.93 1.52-3.88-0.38-8.26-4.26-9.82-1.87-0.72-3.93-0.72-5.79 0.08-1.87 0.8-3.28 2.28-4.04 4.14-1.41 3.51-0.64 18.28-0.57 19.95 0 0.35 0.23 0.61 0.53 0.73 0.16 0.07 0.23 0.07 0.35 0.07zm6.77-23.83q1.09 0.01 2.17 0.42c3.01 1.18 4.5 4.61 3.32 7.65-0.95 2.36-7.69 9.33-11.5 13.06-0.23-5.29-0.38-15 0.53-17.36 0.57-1.45 1.68-2.63 3.12-3.24 0.77-0.38 1.56-0.53 2.36-0.53z"/>
	<path class="s0" d="m211.4 510.1c0.27 0 0.54-0.11 0.69-0.38 0.27-0.38 0.15-0.91-0.23-1.18l-8.72-6.02c-0.38-0.26-0.91-0.15-1.18 0.23-0.26 0.38-0.15 0.92 0.23 1.18l8.72 6.02c0.15 0.11 0.34 0.15 0.49 0.15z"/>
	<path class="s0" d="m203.86 515.17c0.27 0 0.53-0.12 0.69-0.38 0.26-0.38 0.15-0.92-0.23-1.18l-8.72-6.02c-0.38-0.27-0.91-0.15-1.18 0.23-0.27 0.38-0.15 0.91 0.23 1.18l8.72 6.01c0.15 0.12 0.34 0.16 0.49 0.16z"/>
	<path class="s0" d="m196.33 520.23c0.26 0 0.53-0.12 0.68-0.38 0.27-0.38 0.15-0.92-0.23-1.18l-8.72-6.02c-0.38-0.27-0.91-0.15-1.18 0.23-0.26 0.38-0.15 0.91 0.23 1.18l8.72 6.02c0.15 0.11 0.34 0.15 0.5 0.15z"/>
	<path class="s1" d="m116.1 317.63l18.24 37.96-41.55 19.97-18.24-37.95z"/>
	<path class="s0" d="m92.75 376.42c0.11 0 0.26-0.04 0.38-0.07l41.57-19.99c0.42-0.19 0.61-0.69 0.38-1.11l-18.23-37.95q-0.17-0.3-0.5-0.42-0.35-0.13-0.65 0.04l-41.57 19.98c-0.42 0.19-0.61 0.69-0.38 1.11l18.24 37.96q0.16 0.29 0.49 0.41c0.12 0 0.19 0.04 0.27 0.04zm40.47-21.24l-40.05 19.26-17.52-36.43 40.05-19.27z"/>
	<path class="s2" d="m110.26 373.33l-0.5 0.99c-5.56 11.46-13.47 14.93-24.51 24.83l-40.25-39.33-35.17-70.89 1.29-15.61 12.07-0.77 31.98 33.16 30.19 18.89 11.04 1.56 3.62 7.5-2.86 9.14-7.35 3.54c-0.83 9.17-2.24 11.46-0.57 15 0.08 0.08 2.32 6.28 8.91 5.44l6.78-0.87c4.11-0.42 7.12 3.73 5.33 7.42z"/>
	<path class="s0" d="m85.28 400.02c0.19 0 0.42-0.07 0.58-0.23 3.16-2.81 6.09-5.17 8.68-7.23 6.66-5.33 11.95-9.52 16.02-17.86l0.5-0.99c0.99-2.01 0.76-4.26-0.53-6.09-1.3-1.82-3.39-2.74-5.6-2.43l-6.78 0.87c-4.99 0.65-7.23-3.2-7.99-4.87-0.04-0.04-0.04-0.08-0.08-0.12-1.03-2.13-0.8-3.8-0.23-7.42 0.27-1.71 0.57-3.84 0.84-6.63l6.93-3.31c0.19-0.11 0.38-0.26 0.42-0.49l2.85-9.14c0.08-0.19 0.04-0.42-0.03-0.61l-3.62-7.5q-0.18-0.4-0.65-0.46l-10.85-1.56-29.96-18.73-31.9-33.08c-0.16-0.19-0.42-0.27-0.65-0.27l-12.07 0.76c-0.42 0.04-0.76 0.34-0.8 0.76l-1.29 15.61c0 0.15 0 0.31 0.07 0.46l35.18 70.89c0.04 0.08 0.11 0.15 0.15 0.23l40.2 39.18q0.28 0.27 0.61 0.26zm20.41-33.23c1.37 0 2.63 0.64 3.46 1.79 0.96 1.29 1.07 2.93 0.38 4.37l-0.49 0.99c-3.88 8-9.02 12.11-15.53 17.29-2.48 1.94-5.22 4.15-8.19 6.78l-39.55-38.69-34.99-70.55 1.22-14.65 10.96-0.69 31.72 32.9c0.03 0.03 0.11 0.07 0.15 0.11l30.19 18.88q0.17 0.12 0.34 0.12l10.58 1.52 3.28 6.82-2.67 8.49-7 3.38c-0.27 0.12-0.46 0.39-0.46 0.69-0.27 2.97-0.61 5.22-0.87 7.01-0.58 3.73-0.88 5.82 0.38 8.41q0-0.01 0 0.04c0.72 1.64 3.46 6.7 9.74 5.9l6.78-0.88q0.28-0.04 0.57-0.03z"/>
	<path class="s0" d="m85.28 400.02c0.19 0 0.42-0.07 0.57-0.23 3.16-2.81 6.09-5.17 8.68-7.23 6.66-5.33 11.96-9.52 16.03-17.86l0.49-0.99c0.99-2.01 0.77-4.26-0.53-6.09-1.29-1.82-3.39-2.74-5.6-2.43l-6.77 0.87c-4.99 0.65-7.24-3.2-8-4.87-0.03-0.04-0.03-0.08-0.07-0.12-1.03-2.13-0.8-3.8-0.23-7.42 0.27-1.71 0.57-3.84 0.84-6.63l6.93-3.31c0.19-0.11 0.38-0.26 0.41-0.49l2.86-9.14c0.08-0.19 0.04-0.42-0.04-0.61l-3.62-7.5q-0.18-0.4-0.64-0.46l-10.85-1.56-29.96-18.73-31.91-33.08c-0.15-0.19-0.42-0.27-0.65-0.27l-12.06 0.76c-0.42 0.04-0.77 0.34-0.8 0.76l-1.3 15.61c0 0.15 0 0.31 0.08 0.46l35.18 70.89c0.03 0.08 0.11 0.15 0.15 0.23l40.2 39.18q0.28 0.27 0.61 0.26zm20.41-33.23c1.37 0 2.62 0.64 3.46 1.79 0.95 1.29 1.07 2.93 0.38 4.37l-0.49 0.99c-3.89 8-9.03 12.11-15.54 17.29-2.47 1.94-5.21 4.15-8.18 6.78l-39.56-38.69-34.98-70.55 1.21-14.65 10.97-0.69 31.71 32.9c0.04 0.03 0.12 0.07 0.15 0.11l30.19 18.88q0.18 0.12 0.35 0.12l10.58 1.52 3.27 6.82-2.66 8.49-7.01 3.38c-0.26 0.12-0.45 0.39-0.45 0.69-0.27 2.97-0.61 5.22-0.88 7.01-0.57 3.73-0.87 5.82 0.38 8.41q0-0.01 0 0.04c0.73 1.64 3.47 6.7 9.75 5.9l6.77-0.88q0.29-0.04 0.58-0.03z"/>
	<path class="s3" d="m11.2 273.32l6.43 24.29 30.72 58.25 36.97 43.29-3.05 10.31-14.92 10.89-17.59-15.19c0 0-6.7-13.78-15.19-31.29l2.21-6.29-3.16-6.58-6.36-2.25c-13.25-27.37-27.41-56.8-27.26-57.18 0.27-0.73 0.42-19.84 0.42-19.84l3.73-4.95z"/>
	<path class="s0" d="m120.73 385.71q1.89 0.01 2.93-0.27c1.94-0.53 3.58-1.82 4.57-3.58 0.99-1.75 1.26-3.8 0.68-5.75-0.53-1.94-1.82-3.57-3.57-4.56-1.76-0.99-3.81-1.26-5.75-0.69-3.66 1.03-14.97 10.51-16.22 11.57q-0.39 0.36-0.27 0.88c0.08 0.31 0.34 0.53 0.69 0.61 1.33 0.23 11.38 1.79 16.94 1.79zm0.91-13.44c2.59 0 4.95 1.71 5.67 4.3 0.42 1.52 0.23 3.08-0.53 4.46-0.76 1.37-2.02 2.36-3.54 2.78-2.47 0.68-12.07-0.5-17.32-1.26 4.07-3.39 11.72-9.37 14.16-10.05q0.75-0.23 1.56-0.23z"/>
	<path class="s0" d="m76.71 331.31c0.42 0 0.76-0.31 0.84-0.73l1.64-10.47c0.07-0.46-0.23-0.87-0.69-0.95-0.45-0.08-0.87 0.23-0.95 0.69l-1.64 10.46c-0.07 0.46 0.23 0.88 0.69 0.96q0.06 0.04 0.11 0.04z"/>
	<path class="s0" d="m68.91 326.7c0.41 0 0.76-0.31 0.83-0.73l1.68-10.47c0.07-0.45-0.23-0.87-0.69-0.95-0.45-0.07-0.87 0.23-0.95 0.69l-1.67 10.47c-0.08 0.45 0.22 0.87 0.68 0.95q0 0.05 0.12 0.04z"/>
	<path class="s0" d="m61.07 322.09c0.41 0 0.76-0.3 0.83-0.72l1.68-10.47c0.07-0.46-0.23-0.88-0.69-0.95-0.45-0.08-0.87 0.22-0.95 0.68l-1.67 10.47c-0.08 0.46 0.22 0.88 0.68 0.95q0.06 0.05 0.12 0.04z"/>
	<path class="s4" d="m415.97 307.58v16.26c0 26.5-21.47 47.93-47.93 47.93h-101.77v113.27h-64.26v-132.87c0-24.63 19.95-44.59 44.58-44.59z"/>
	<path class="s4" d="m276.25 251.24l71 55.96h68.6v17.86c0 25.93-21.01 46.94-46.94 46.94h-6.24c-21.06 0-41.39-7.65-57.22-21.55l-53.91-47.28-123.16 66.02-29.96-56.81 129.4-65.9c15.69-8 34.61-6.13 48.43 4.76z"/>
	<path class="s5" d="m362.7 372.84h6.25c26.34 0 47.78-21.43 47.78-47.78v-17.86c0-0.45-0.38-0.83-0.84-0.83h-68.34l-70.77-55.78c-14.05-11.08-33.43-12.98-49.34-4.87l-129.37 65.9q-0.29 0.16-0.41 0.5-0.11 0.35 0.07 0.64l29.96 56.81q0.17 0.29 0.5 0.42 0.35 0.1 0.65-0.08l82.72-44.39c0.42-0.23 0.57-0.73 0.35-1.14-0.23-0.42-0.73-0.58-1.15-0.35l-82.04 43.98-29.16-55.32 128.6-65.49c15.35-7.8 34-5.98 47.55 4.69l71 55.96q0.24 0.18 0.54 0.19h67.76v17.02c0 25.43-20.67 46.11-46.1 46.11h-6.24c-20.87 0-41.01-7.58-56.69-21.32l-53.91-47.29c-0.27-0.23-0.65-0.27-0.95-0.11l-8 4.3c-0.41 0.23-0.57 0.72-0.34 1.14 0.23 0.42 0.73 0.57 1.14 0.34l7.5-4.03 53.49 46.86c15.99 14.05 36.51 21.78 57.79 21.78z"/>
	<path class="s5" d="m251.88 304.24q0.35-0.01 0.65-0.31c0.3-0.34 0.26-0.88-0.08-1.18l-11.19-9.82c-0.34-0.31-0.88-0.27-1.18 0.07-0.31 0.35-0.27 0.88 0.08 1.18l11.19 9.83c0.11 0.15 0.34 0.23 0.53 0.23z"/>
	<path class="s5" d="m201.97 485.92h64.3c0.46 0 0.84-0.38 0.84-0.84v-112.47h89.58c0.45 0 0.83-0.38 0.83-0.83 0-0.46-0.38-0.84-0.83-0.84h-90.42c-0.46 0-0.84 0.38-0.84 0.84v112.42h-62.59v-132.03c0-24.14 19.65-43.75 43.75-43.75h9.89c0.46 0 0.84-0.38 0.84-0.84 0-0.45-0.38-0.83-0.84-0.83h-9.89c-25.05 0-45.42 20.37-45.42 45.42v132.91c-0.04 0.46 0.34 0.84 0.8 0.84z"/>
	<path class="s5" d="m266.27 372.61c0.46 0 0.84-0.38 0.84-0.84v-13.02c0-0.45-0.38-0.83-0.84-0.83-0.45 0-0.84 0.38-0.84 0.83v13.02c0 0.5 0.35 0.84 0.84 0.84z"/>
</svg>